<mxfile host="app.diagrams.net" modified="2023-12-13T17:51:54.681Z" agent="Mozilla/5.0 (Windows NT 10.0; Win64; x64) AppleWebKit/537.36 (KHTML, like Gecko) Chrome/120.0.0.0 Safari/537.36" etag="rVpb_oOAtF4eFWszabZS" version="22.1.8" type="device">
  <diagram id="QM2p47kPDZQZnexqTIiv" name="Страница 1">
    <mxGraphModel dx="1687" dy="929" grid="1" gridSize="10" guides="1" tooltips="1" connect="1" arrows="1" fold="1" page="1" pageScale="1" pageWidth="1654" pageHeight="2336" math="0" shadow="0">
      <root>
        <mxCell id="0" />
        <mxCell id="1" parent="0" />
        <mxCell id="197" style="edgeStyle=none;html=1;exitX=0.5;exitY=0.5;exitDx=0;exitDy=30;exitPerimeter=0;entryX=0.5;entryY=0;entryDx=0;entryDy=0;endArrow=none;endFill=0;" parent="1" source="3" target="167" edge="1">
          <mxGeometry relative="1" as="geometry" />
        </mxCell>
        <mxCell id="3" value="Начало" style="html=1;dashed=0;whitespace=wrap;shape=mxgraph.dfd.start" parent="1" vertex="1">
          <mxGeometry x="860" y="120" width="200" height="60" as="geometry" />
        </mxCell>
        <mxCell id="6" value="" style="edgeStyle=orthogonalEdgeStyle;rounded=0;orthogonalLoop=1;jettySize=auto;html=1;endArrow=none;endFill=0;dashed=1;" parent="1" source="7" target="3" edge="1">
          <mxGeometry relative="1" as="geometry" />
        </mxCell>
        <mxCell id="7" value="update_pheromones(places, visited, pheromones, q, k_evaporation)&lt;br&gt;&lt;br&gt;Вход: places - кол-во городов, visited - массив посещнных городов,&lt;br&gt;pheromones - матрица феромонов на дорогах, q - спец параметр,&lt;br&gt;k_evaporation - коэффициент испарения" style="html=1;dashed=0;whitespace=wrap;shape=partialRectangle;right=0;align=left;" parent="1" vertex="1">
          <mxGeometry x="1130" y="110" width="30" height="80" as="geometry" />
        </mxCell>
        <mxCell id="198" style="edgeStyle=none;html=1;exitX=0.5;exitY=1;exitDx=0;exitDy=0;entryX=0.5;entryY=0;entryDx=0;entryDy=0;endArrow=none;endFill=0;" parent="1" source="167" target="181" edge="1">
          <mxGeometry relative="1" as="geometry" />
        </mxCell>
        <mxCell id="167" value="ants = places" style="html=1;dashed=0;whitespace=wrap;" parent="1" vertex="1">
          <mxGeometry x="860" y="210" width="200" height="60" as="geometry" />
        </mxCell>
        <mxCell id="241" style="edgeStyle=orthogonalEdgeStyle;html=1;exitX=0.5;exitY=1;exitDx=0;exitDy=0;entryX=0.5;entryY=0;entryDx=0;entryDy=0;rounded=0;endArrow=none;endFill=0;" parent="1" source="181" target="227" edge="1">
          <mxGeometry relative="1" as="geometry" />
        </mxCell>
        <mxCell id="181" value="Цикл i от 0 до places" style="shape=loopLimit;whiteSpace=wrap;html=1;direction=east" parent="1" vertex="1">
          <mxGeometry x="860" y="300" width="200" height="60" as="geometry" />
        </mxCell>
        <mxCell id="199" style="edgeStyle=orthogonalEdgeStyle;rounded=0;orthogonalLoop=1;jettySize=auto;html=1;exitX=1;exitY=0.5;exitDx=0;exitDy=0;endArrow=classic;endFill=1;" parent="1" source="201" edge="1">
          <mxGeometry relative="1" as="geometry">
            <mxPoint x="1120" y="1180" as="targetPoint" />
          </mxGeometry>
        </mxCell>
        <mxCell id="256" value="" style="edgeStyle=orthogonalEdgeStyle;rounded=0;html=1;endArrow=none;endFill=0;" parent="1" source="vq3o9j-pyLEEpgUQgclE-257" target="238" edge="1">
          <mxGeometry relative="1" as="geometry" />
        </mxCell>
        <mxCell id="201" value="pheromones[i][j] &amp;lt;&lt;br&gt;MIN_PHEROMONE" style="shape=rhombus;html=1;dashed=0;whitespace=wrap;perimeter=rhombusPerimeter;" parent="1" vertex="1">
          <mxGeometry x="860" y="1090" width="200" height="60" as="geometry" />
        </mxCell>
        <mxCell id="202" value="Да" style="text;html=1;align=center;verticalAlign=middle;resizable=0;points=[];autosize=1;strokeColor=none;" parent="1" vertex="1">
          <mxGeometry x="1070" y="1100" width="30" height="20" as="geometry" />
        </mxCell>
        <mxCell id="203" value="pheromones[i][j] =&lt;br&gt;MIN_PHEROMONE" style="html=1;dashed=0;whitespace=wrap;" parent="1" vertex="1">
          <mxGeometry x="1020" y="1180" width="200" height="60" as="geometry" />
        </mxCell>
        <mxCell id="213" style="edgeStyle=orthogonalEdgeStyle;rounded=0;html=1;exitX=0.5;exitY=1;exitDx=0;exitDy=0;entryX=0.5;entryY=1;entryDx=0;entryDy=0;endArrow=classic;endFill=1;" parent="1" source="203" target="212" edge="1">
          <mxGeometry relative="1" as="geometry">
            <Array as="points">
              <mxPoint x="1120" y="1290" />
              <mxPoint x="960" y="1290" />
            </Array>
            <mxPoint x="1120" y="1330" as="sourcePoint" />
          </mxGeometry>
        </mxCell>
        <mxCell id="214" style="edgeStyle=orthogonalEdgeStyle;rounded=0;html=1;exitX=0;exitY=0.5;exitDx=0;exitDy=0;endArrow=none;endFill=0;" parent="1" source="201" edge="1">
          <mxGeometry relative="1" as="geometry">
            <mxPoint x="960" y="1360" as="targetPoint" />
            <Array as="points">
              <mxPoint x="800" y="1120" />
              <mxPoint x="800" y="1290" />
              <mxPoint x="960" y="1290" />
            </Array>
            <mxPoint x="800" y="1240" as="sourcePoint" />
          </mxGeometry>
        </mxCell>
        <mxCell id="257" style="edgeStyle=orthogonalEdgeStyle;rounded=0;html=1;exitX=0.5;exitY=0;exitDx=0;exitDy=0;entryX=0.5;entryY=1;entryDx=0;entryDy=0;endArrow=none;endFill=0;" parent="1" source="212" target="221" edge="1">
          <mxGeometry relative="1" as="geometry" />
        </mxCell>
        <mxCell id="212" value="Цикл j от 0 до places" style="shape=loopLimit;whiteSpace=wrap;html=1;strokeWidth=1;direction=west;" parent="1" vertex="1">
          <mxGeometry x="860" y="1330" width="200" height="60" as="geometry" />
        </mxCell>
        <mxCell id="215" value="Конец" style="html=1;dashed=0;whitespace=wrap;shape=mxgraph.dfd.start" parent="1" vertex="1">
          <mxGeometry x="860" y="1510" width="200" height="60" as="geometry" />
        </mxCell>
        <mxCell id="226" style="edgeStyle=orthogonalEdgeStyle;rounded=0;html=1;exitX=0.5;exitY=0;exitDx=0;exitDy=0;entryX=0.5;entryY=0.5;entryDx=0;entryDy=-30;entryPerimeter=0;endArrow=none;endFill=0;" parent="1" source="221" target="215" edge="1">
          <mxGeometry relative="1" as="geometry" />
        </mxCell>
        <mxCell id="221" value="Цикл i от 0 до places" style="shape=loopLimit;whiteSpace=wrap;html=1;strokeWidth=1;direction=west;" parent="1" vertex="1">
          <mxGeometry x="860" y="1420" width="200" height="60" as="geometry" />
        </mxCell>
        <mxCell id="248" style="edgeStyle=orthogonalEdgeStyle;rounded=0;html=1;exitX=0.5;exitY=1;exitDx=0;exitDy=0;entryX=0.5;entryY=0;entryDx=0;entryDy=0;endArrow=none;endFill=0;" parent="1" source="227" target="228" edge="1">
          <mxGeometry relative="1" as="geometry" />
        </mxCell>
        <mxCell id="227" value="Цикл j от 0 до places" style="shape=loopLimit;whiteSpace=wrap;html=1;direction=east" parent="1" vertex="1">
          <mxGeometry x="860" y="390" width="200" height="60" as="geometry" />
        </mxCell>
        <mxCell id="249" style="edgeStyle=orthogonalEdgeStyle;rounded=0;html=1;exitX=0.5;exitY=1;exitDx=0;exitDy=0;entryX=0.5;entryY=0;entryDx=0;entryDy=0;endArrow=none;endFill=0;" parent="1" source="228" target="229" edge="1">
          <mxGeometry relative="1" as="geometry" />
        </mxCell>
        <mxCell id="228" value="delta_pheromones = 0" style="html=1;dashed=0;whitespace=wrap;" parent="1" vertex="1">
          <mxGeometry x="860" y="480" width="200" height="60" as="geometry" />
        </mxCell>
        <mxCell id="250" style="edgeStyle=orthogonalEdgeStyle;rounded=0;html=1;exitX=0.5;exitY=1;exitDx=0;exitDy=0;entryX=0.5;entryY=0;entryDx=0;entryDy=0;endArrow=none;endFill=0;" parent="1" source="229" target="230" edge="1">
          <mxGeometry relative="1" as="geometry" />
        </mxCell>
        <mxCell id="229" value="Цикл ant от 0 до ants" style="shape=loopLimit;whiteSpace=wrap;html=1;direction=east" parent="1" vertex="1">
          <mxGeometry x="860" y="570" width="200" height="60" as="geometry" />
        </mxCell>
        <mxCell id="251" style="edgeStyle=orthogonalEdgeStyle;rounded=0;html=1;exitX=0.5;exitY=1;exitDx=0;exitDy=0;entryX=0.5;entryY=0;entryDx=0;entryDy=0;endArrow=none;endFill=0;" parent="1" source="230" target="231" edge="1">
          <mxGeometry relative="1" as="geometry" />
        </mxCell>
        <mxCell id="230" value="length = calc_length(matrix, viisited[ant])" style="shape=process;whiteSpace=wrap;html=1;backgroundOutline=1;" parent="1" vertex="1">
          <mxGeometry x="860" y="660" width="200" height="60" as="geometry" />
        </mxCell>
        <mxCell id="252" style="edgeStyle=orthogonalEdgeStyle;rounded=0;html=1;exitX=0.5;exitY=1;exitDx=0;exitDy=0;entryX=0.5;entryY=1;entryDx=0;entryDy=0;endArrow=none;endFill=0;" parent="1" source="231" target="237" edge="1">
          <mxGeometry relative="1" as="geometry" />
        </mxCell>
        <mxCell id="231" value="delta_pheromones += q / length" style="html=1;dashed=0;whitespace=wrap;" parent="1" vertex="1">
          <mxGeometry x="860" y="750" width="200" height="60" as="geometry" />
        </mxCell>
        <mxCell id="253" style="edgeStyle=orthogonalEdgeStyle;rounded=0;html=1;exitX=0.5;exitY=0;exitDx=0;exitDy=0;entryX=0.5;entryY=0;entryDx=0;entryDy=0;endArrow=none;endFill=0;" parent="1" source="237" target="238" edge="1">
          <mxGeometry relative="1" as="geometry" />
        </mxCell>
        <mxCell id="237" value="Цикл ant от 0 до ants" style="shape=loopLimit;whiteSpace=wrap;html=1;strokeWidth=1;direction=west;" parent="1" vertex="1">
          <mxGeometry x="860" y="840" width="200" height="60" as="geometry" />
        </mxCell>
        <mxCell id="238" value="pheromones[i][j] *=&lt;br&gt;(1 -&amp;nbsp;&lt;span style=&quot;text-align: left&quot;&gt;k_evaporation)&lt;/span&gt;&lt;span style=&quot;text-align: left&quot;&gt;&lt;br&gt;&lt;/span&gt;" style="html=1;dashed=0;whitespace=wrap;" parent="1" vertex="1">
          <mxGeometry x="860" y="930" width="200" height="60" as="geometry" />
        </mxCell>
        <mxCell id="SPxTXvitPfvB0Jqu9_0L-257" value="Text" style="text;html=1;align=center;verticalAlign=middle;resizable=0;points=[];autosize=1;strokeColor=none;fillColor=none;" parent="1" vertex="1">
          <mxGeometry x="725" y="1178" width="50" height="30" as="geometry" />
        </mxCell>
        <mxCell id="vq3o9j-pyLEEpgUQgclE-258" value="" style="edgeStyle=orthogonalEdgeStyle;rounded=0;html=1;endArrow=none;endFill=0;" edge="1" parent="1" source="201" target="vq3o9j-pyLEEpgUQgclE-257">
          <mxGeometry relative="1" as="geometry">
            <mxPoint x="960" y="1090" as="sourcePoint" />
            <mxPoint x="960" y="990" as="targetPoint" />
          </mxGeometry>
        </mxCell>
        <mxCell id="vq3o9j-pyLEEpgUQgclE-257" value="pheromones[i][j] += &lt;br&gt;delta_pheromones&lt;span style=&quot;text-align: left&quot;&gt;&lt;br&gt;&lt;/span&gt;" style="html=1;dashed=0;whitespace=wrap;" vertex="1" parent="1">
          <mxGeometry x="860" y="1010" width="200" height="60" as="geometry" />
        </mxCell>
      </root>
    </mxGraphModel>
  </diagram>
</mxfile>
